inDegrees=yes
name=SYN01_S01_straightWalk_ik.mot
DataType=double
version=3
OpenSimVersion=4.5
endheader
time	pelvis_tilt	pelvis_list	pelvis_rotation	pelvis_tx	pelvis_ty	pelvis_tz	hip_flexion_r	hip_adduction_r	hip_rotation_r	knee_angle_r	knee_angle_r_beta	ankle_angle_r	subtalar_angle_r	mtp_angle_r	hip_flexion_l	hip_adduction_l	hip_rotation_l	knee_angle_l	knee_angle_l_beta	ankle_angle_l	subtalar_angle_l	mtp_angle_l	lumbar_extension	lumbar_bending	lumbar_rotation	arm_flex_r	arm_add_r	arm_rot_r	elbow_flex_r	pro_sup_r	wrist_flex_r	wrist_dev_r	arm_flex_l	arm_add_l	arm_rot_l	elbow_flex_l	pro_sup_l	wrist_flex_l	wrist_dev_l
10.12	3.726329655022179	-4.571363707316119	129.1706644937946	0	0.93	0	20.46775084709923	-5.102155830286401	-2.595939802729435	49.94349209221038	0.8716783769528225	2.931639447451052	0	0	43.28048746981705	-9.998370571497805	2.446990804308113e-16	57.90446376763538	1.010623544346998	-4.999898736307594	0	0	0	0	0	0	0	0	0	1.407313129345954e-39	0	0	0	0	0	1.052357267868557e-38	1.407313129345954e-39	0	0
10.13	3.805364987956447	-4.667961527806575	129.1770810523675	0	0.93	0	21.38118524208515	-4.861297217266233	-2.74070325701455	47.74255400849108	0.833264760759386	2.920969286634084	0	0	43.28898135487116	-9.998390919117764	2.446990804308113e-16	57.91453027602561	1.010799238062587	-4.99990027064498	0	0	0	0	0	0	0	0	0	0	0	0	0	0	0	0	0	0	0
10.14	3.857123017333138	-4.736786895958823	129.1803815994712	0	0.93	0	22.25040266577408	-4.582753021055696	-2.882969726354684	45.28048554325282	0.790293559631455	2.840548813679087	1.310610196958546e-15	-9.593842755312915e-17	43.29713394102681	-9.998410148425323	2.446990804308113e-16	57.92423344241845	1.010968590264011	-4.999901713725186	-5.102448235715617e-17	1.886268686343796e-18	8.663838377982886e-44	2.799882264095756e-22	-1.094189667658827e-27	8.503971392896208e-15	5.403879421353545e-23	-4.756963233074688e-13	9.60795196048789e-16	9.608365515766587e-16	8.925635494285226e-23	7.557823419235107e-23	-1.376825302264559e-13	2.678766157578084e-13	1.076344049847779e-13	9.608344760909101e-16	9.608366628475852e-16	4.3162809168754e-22	3.045865971077555e-23
10.15	3.893606202638148	-4.776000534508304	129.1843543896235	0	0.93	0	23.09246902961157	-4.2723022371788	-3.0045736177471	42.60800773374604	0.7436500226690758	2.684201085633206	0	0	43.30531862714203	-9.998429554970814	2.446990804308113e-16	57.9339169088483	1.011137598636218	-4.999903171260688	0	0	0	0	0	0	0	0	0	0	0	0	0	0	0	0	0	0	0
10.16	3.9103558093248	-4.796246101507275	129.1851536834355	0	0.93	0	23.91357531390074	-3.935211454769483	-3.099514853422584	39.76052125748609	0.6939520082523284	2.482212954643877	0	0	43.31283071905084	-9.998446882410436	2.446990804308113e-16	57.94289908831128	1.011294367241852	-4.99990446235268	0	0	0	0	0	0	0	0	0	0	0	0	0	0	0	0	0	0	0
10.17	3.886057350220629	-4.767144146162621	129.1837857091498	0	0.93	0	24.64410235869406	-3.555850212838386	-3.162257178099562	36.76290878412153	0.6416338008932659	2.262075868043788	0	0	43.32058105629785	-9.998465105220429	2.446990804308113e-16	57.95204949295086	1.011454071930703	-4.999905826347494	0	0	0	0	0	0	0	0	0	0	0	0	0	0	0	0	0	0	0
10.18	3.842295964051228	-4.717950735104867	129.1800975425961	6.94197596600289e-41	0.93	-1.068285708687516e-30	25.35192799343918	-3.16065819490674	-3.178125018106206	33.65875993403758	0.5874561829873051	2.029764675856054	1.165518587392608e-17	8.788066687476248e-19	43.32777749444764	-9.998481749553029	2.446989288573945e-16	57.96059092879076	1.011603148108957	-4.999907066063142	3.968839819555469e-18	4.116828507871463e-18	9.301692790134505e-25	4.657437720298473e-18	1.299059350662154e-18	-1.811101946977221e-17	2.695055090014343e-18	9.613856400367542e-18	1.348567889779825e-15	1.129878589776685e-15	-1.346824617052093e-24	-3.166321678361759e-23	2.861521103211738e-18	4.134817414046118e-18	3.72628715226279e-18	1.136756592062544e-15	1.12988033201683e-15	-9.67503236259382e-25	3.567732802754655e-23
